<?xml version="1.0" encoding="UTF-8" standalone="no"?><!DOCTYPE svg PUBLIC "-//W3C//DTD SVG 1.1//EN" "http://www.w3.org/Graphics/SVG/1.1/DTD/svg11.dtd"><svg width="100%" height="100%" viewBox="0 0 960 960" version="1.1" xmlns="http://www.w3.org/2000/svg" xmlns:xlink="http://www.w3.org/1999/xlink" xml:space="preserve" xmlns:serif="http://www.serif.com/" style="fill-rule:evenodd;clip-rule:evenodd;stroke-linejoin:round;stroke-miterlimit:1.5;"><g><path d="M480.035,129.033c193.704,0 350.967,157.263 350.967,350.967c0,193.704 -157.263,350.967 -350.967,350.967c-193.704,-0 -361.101,-157.528 -350.967,-350.967c2.41,-45.987 13.746,-112.175 50.85,-168.593c61.612,-93.682 206.109,-171.722 202.383,-169.197" style="fill:#fff;fill-opacity:0;"/><path d="M38.567,145.495l343.734,-3.285l-93.091,330.905l-250.643,-327.62Z" style="fill:#fff;"/><path d="M480.035,129.033c193.704,0 350.967,157.263 350.967,350.967c0,193.704 -157.263,350.967 -350.967,350.967c-193.704,-0 -361.101,-157.528 -350.967,-350.967c2.41,-45.987 13.746,-112.175 50.85,-168.593c7.992,-12.151 17.377,-24.038 27.653,-35.521" style="fill:none;stroke:#fff;stroke-width:183.33px;"/></g></svg>